<?xml version="1.0" encoding="utf-8"?>
<!-- Generator: Adobe Illustrator 18.1.0, SVG Export Plug-In . SVG Version: 6.00 Build 0)  -->
<svg version="1.1" id="Layer_1" xmlns="http://www.w3.org/2000/svg" xmlns:xlink="http://www.w3.org/1999/xlink" x="0px" y="0px"
	 viewBox="0 0 36.3 48.1" enable-background="new 0 0 36.3 48.1" xml:space="preserve">
<g>
	<path fill="#FFFFFF" d="M6.7,19C4,20,1.2,18.6,0.3,16.3c-0.9-2.7,0.5-5.5,2.7-6.4c27-9.6,27-9.6,27-9.6c2.3-0.9,5,0,6,2.7
		c0.9,2.3,0,5-2.7,5.9L6.7,19z"/>
	<path fill="#FFFFFF" d="M6.7,33.6c-2.7,0.9-5.5-0.5-6.4-3.2c-0.9-2.3,0.5-5,2.7-5.9c27-10,27-10,27-10c2.3-0.9,5,0.5,6,3.2
		c0.9,2.3,0,5-2.7,5.9L6.7,33.6z"/>
	<path fill="#FFFFFF" d="M6.7,47.8C4,48.7,1.2,47.3,0.3,45c-0.9-2.7,0.5-5.5,2.7-6.4c27-9.6,27-9.6,27-9.6c2.3-0.9,5,0.5,6,2.7
		c0.9,2.7,0,5.5-2.7,6.4L6.7,47.8z"/>
</g>
</svg>
