<?xml version="1.0" encoding="utf-8"?>
<!-- Generator: Adobe Illustrator 18.1.0, SVG Export Plug-In . SVG Version: 6.00 Build 0)  -->
<svg version="1.1" id="Layer_1" xmlns="http://www.w3.org/2000/svg" xmlns:xlink="http://www.w3.org/1999/xlink" x="0px" y="0px"
	 viewBox="0 0 19.4 29.1" enable-background="new 0 0 19.4 29.1" xml:space="preserve">
<path fill-rule="evenodd" clip-rule="evenodd" fill="#999999" d="M17.9,27c0,0.4-0.3,0.6-0.4,0.6c-1.6,0-1.6,0-1.6,0
	c0-9.2,0-9.2,0-9.2c0-0.5-0.3-0.8-0.8-0.8c-0.4,0-0.8,0.3-0.8,0.8c0,9.2,0,9.2,0,9.2c-9.5,0-9.5,0-9.5,0c0-9.2,0-9.2,0-9.2
	c0-0.5-0.4-0.8-0.8-0.8c-0.5,0-0.8,0.3-0.8,0.8c0,9.2,0,9.2,0,9.2c-1.5,0-1.5,0-1.5,0c-0.2,0-0.4-0.2-0.4-0.6c0,0,0-6,0-8.6
	c0-0.9,0.4-2.1,1.1-3.1c0.7-0.8,1.6-1.5,2.4-1.9c0,0.1,0,0.1,0,0.1c0.5,0.3,0.9,0.6,1.4,0.8h0.1c0.2,0.1,0.3,0.1,0.4,0.2
	c0.1,0,0.2,0.1,0.3,0.1c0.1,0,0.3,0.1,0.4,0.1c0.1,0,0.2,0.1,0.4,0.1c0.1,0,0.2,0.1,0.3,0.1s0.3,0,0.5,0C8.7,15,8.8,15,8.9,15
	c0.3,0,0.5,0,0.8,0c0.2,0,0.5,0,0.7,0c0.1,0,0.2,0,0.3-0.1c0.1,0,0.3,0,0.5,0c0.1,0,0.2-0.1,0.3-0.1s0.2-0.1,0.4-0.1
	c0.1,0,0.2-0.1,0.3-0.1c0.1,0,0.2-0.1,0.3-0.1c0.1-0.1,0.3-0.1,0.4-0.2h0.1c0.6-0.3,0.9-0.6,1.4-0.8c0,0,0,0,0.1-0.1
	c0.8,0.4,1.7,1,2.3,1.9c0.8,1,1.2,2.2,1.2,3.1C17.9,21,17.9,27,17.9,27z M17.9,14.5c-0.7-0.8-1.5-1.6-2.4-2.1c1.1-1.3,1.8-3,1.8-4.9
	c0-1.1-0.3-2.3-0.8-3.2C16.4,4,16.2,3.7,16,3.4c-0.3-0.3-0.8-0.4-1-0.2c-0.4,0.2-0.5,0.7-0.3,1c0.2,0.3,0.3,0.5,0.5,0.8
	c0.4,0.8,0.6,1.6,0.6,2.5c0,1.9-0.8,3.5-2.2,4.6c-0.1,0.1-0.2,0.1-0.3,0.2c0,0.1-0.1,0.1-0.1,0.1c-0.1,0.1-0.2,0.2-0.3,0.2
	c-0.1,0.1-0.2,0.1-0.2,0.2c-0.1,0-0.2,0.1-0.3,0.1C12.3,13,12.2,13,12.1,13C12,13,11.9,13,11.9,13c-0.2,0.1-0.3,0.1-0.4,0.2
	c-0.1,0-0.1,0-0.2,0c-0.1,0.1-0.3,0.1-0.4,0.1c-0.1,0.1-0.1,0.1-0.2,0.1c-0.1,0-0.3,0-0.5,0.1h-0.1c-0.2,0-0.4,0-0.6,0
	c-0.2,0-0.5,0-0.7,0H8.9c-0.2-0.1-0.3-0.1-0.5-0.1c0,0-0.1,0-0.2-0.1c-0.1,0-0.2,0-0.4-0.1c0,0-0.1,0-0.2,0
	c-0.1-0.1-0.2-0.1-0.3-0.1C7.3,13,7.2,13,7.1,13C7,13,7,13,7,12.9c-0.1,0-0.2-0.1-0.3-0.1c-0.1-0.1-0.2-0.1-0.2-0.2
	c-0.1,0-0.2-0.1-0.3-0.2c-0.1,0-0.1,0-0.2-0.1c-0.1-0.1-0.2-0.1-0.3-0.2C4.4,11,3.7,9.4,3.7,7.5c0-3.3,2.6-6,6-6
	c0.8,0,1.8,0.2,2.5,0.6c0.3,0.1,0.5,0.3,0.8,0.5c0.4,0.2,0.8,0.1,1-0.3c0.3-0.3,0.2-0.8-0.2-1l0,0c-0.3-0.2-0.7-0.4-0.9-0.5
	C11.8,0.3,10.8,0,9.7,0C5.5,0,2.2,3.4,2.2,7.5c0,1.9,0.7,3.6,1.7,4.9c-0.9,0.5-1.7,1.2-2.3,2.1C0.6,15.6,0,17,0,18.4C0,21,0,27,0,27
	c0,1.1,0.8,2.1,1.9,2.1c15.6,0,15.6,0,15.6,0c1,0,1.9-0.9,1.9-2.1c0,0,0-6,0-8.6C19.4,17,18.7,15.6,17.9,14.5z"/>
</svg>
