<?xml version="1.0" encoding="utf-8"?>
<!-- Generator: Adobe Illustrator 18.1.0, SVG Export Plug-In . SVG Version: 6.00 Build 0)  -->
<svg version="1.1" id="Layer_1" xmlns="http://www.w3.org/2000/svg" xmlns:xlink="http://www.w3.org/1999/xlink" x="0px" y="0px"
	 viewBox="0 0 69.4 93.6" enable-background="new 0 0 69.4 93.6" xml:space="preserve">
<path fill-rule="evenodd" clip-rule="evenodd" fill="#4D4D4D" d="M53.1,58.2c-37.2,0-37.2,0-37.2,0c-1.2,0-2.4,1.2-2.4,2.4
	c0,1.5,1.2,2.4,2.4,2.4c37.2,0,37.2,0,37.2,0c1.5,0,2.4-0.9,2.4-2.4C55.5,59.4,54.6,58.2,53.1,58.2z M53.1,30.7
	c-37.2,0-37.2,0-37.2,0c-1.2,0-2.4,1.2-2.4,2.4c0,1.5,1.2,2.4,2.4,2.4c37.2,0,37.2,0,37.2,0c1.5,0,2.4-0.9,2.4-2.4
	C55.5,31.9,54.6,30.7,53.1,30.7z M67,14.2c1.2,0,2.4-1.2,2.4-2.4c0-4.1,0-4.1,0-4.1c0-3-2.1-7.7-7.7-7.7C7.4,0,7.4,0,7.4,0
	C4.4,0,0,2.1,0,7.7c0,78.6,0,78.6,0,78.6c0,3,2.1,7.4,7.4,7.4c54.3,0,54.3,0,54.3,0c3,0,7.7-1.8,7.7-7.4c0-65,0-65,0-65
	c0-1.5-1.2-2.4-2.4-2.4c-1.5,0-2.4,0.9-2.4,2.4c0,65,0,65,0,65c0,2.4-2.1,2.7-3,2.7c-54.3,0-54.3,0-54.3,0c-2.4,0-2.7-1.8-2.7-2.7
	c0-78.6,0-78.6,0-78.6c0-2.4,1.8-3,2.7-3c54.3,0,54.3,0,54.3,0c2.4,0,2.7,1.8,3,3c0,4.1,0,4.1,0,4.1C64.7,13,65.5,14.2,67,14.2z
	 M53.1,44.6c-37.2,0-37.2,0-37.2,0c-1.2,0-2.4,0.9-2.4,2.4c0,1.2,1.2,2.4,2.4,2.4c37.2,0,37.2,0,37.2,0c1.5,0,2.4-1.2,2.4-2.4
	C55.5,45.5,54.6,44.6,53.1,44.6z"/>
</svg>
