<?xml version="1.0" encoding="utf-8"?>
<!-- Generator: Adobe Illustrator 18.1.0, SVG Export Plug-In . SVG Version: 6.00 Build 0)  -->
<svg version="1.1" id="Layer_1" xmlns="http://www.w3.org/2000/svg" xmlns:xlink="http://www.w3.org/1999/xlink" x="0px" y="0px"
	 viewBox="0 0 28.7 41.4" enable-background="new 0 0 28.7 41.4" xml:space="preserve">
<path fill-rule="evenodd" clip-rule="evenodd" fill="#333333" d="M28.6,24.4c-0.1-0.4-0.5-0.6-0.8-0.6c-5.8,0-5.8,0-5.8,0
	c0-6.3,0-6.3,0-6.3c0-0.5-0.5-0.9-0.9-0.9S20,17,20,17.5c0,7.2,0,7.2,0,7.2c0,0.2,0.1,0.5,0.2,0.7c0.2,0.1,0.5,0.2,0.7,0.2
	c4.8,0,4.8,0,4.8,0C14.4,39.1,14.4,39.1,14.4,39.1C3,25.7,3,25.7,3,25.7c4.9,0,4.9,0,4.9,0c0.2,0,0.5-0.1,0.7-0.2
	c0.1-0.2,0.2-0.5,0.2-0.7c0-11.7,0-11.7,0-11.7c0-1.1,0.8-1.9,1.9-1.9c7.5,0,7.5,0,7.5,0c1.1,0,1.9,0.8,1.9,1.9c0,0.7,0,0.7,0,0.7
	c0,0.5,0.5,0.9,0.9,0.9s0.9-0.5,0.9-0.9c0-0.7,0-0.7,0-0.7c0-2-1.6-3.7-3.7-3.7c-7.5,0-7.5,0-7.5,0C8.6,9.3,7,11.1,7,13.1
	c0,10.7,0,10.7,0,10.7c-6.1,0-6.1,0-6.1,0c-0.4,0-0.7,0.2-0.8,0.6S0,25.1,0.2,25.3c13.5,15.9,13.5,15.9,13.5,15.9
	c0.2,0.1,0.5,0.2,0.7,0.2l0,0c0.2,0,0.6-0.1,0.7-0.4c13.3-15.8,13.3-15.8,13.3-15.8C28.7,25.1,28.8,24.7,28.6,24.4z M7.9,1.9
	c13.1,0,13.1,0,13.1,0c0.5,0,0.9-0.4,0.9-0.9C21.9,0.5,21.4,0,21,0C7.9,0,7.9,0,7.9,0C7.4,0,7,0.5,7,0.9C7,1.5,7.4,1.9,7.9,1.9z
	 M7.9,6.5c13.1,0,13.1,0,13.1,0c0.5,0,0.9-0.4,0.9-0.9c0-0.5-0.5-0.9-0.9-0.9c-13.1,0-13.1,0-13.1,0C7.4,4.7,7,5.1,7,5.6
	C7,6.2,7.4,6.5,7.9,6.5z"/>
</svg>
