<?xml version="1.0" encoding="utf-8"?>
<!-- Generator: Adobe Illustrator 18.1.0, SVG Export Plug-In . SVG Version: 6.00 Build 0)  -->
<svg version="1.1" id="Layer_1" xmlns="http://www.w3.org/2000/svg" xmlns:xlink="http://www.w3.org/1999/xlink" x="0px" y="0px"
	 viewBox="0 0 33.2 26.6" enable-background="new 0 0 33.2 26.6" xml:space="preserve">
<path fill-rule="evenodd" clip-rule="evenodd" fill="#999999" d="M27.5,18.3c-1.7,0-2.8-0.6-3.6-1.1c-0.2-0.1-0.3-0.3-0.4-0.4
	c8.1,0,8.1,0,8.1,0C30.9,17.5,29.6,18.3,27.5,18.3z M16.8,3.9c-0.2,0-0.2,0-0.2,0l0,0c-0.4,0-0.4,0-0.4,0c-0.6-0.2-1.1-0.8-1.1-1.5
	c0-0.8,0.6-1.5,1.5-1.5C17.4,1,18,1.6,18,2.5C18,3.2,17.5,3.8,16.8,3.9z M20.6,24c2.1,0,2.1,0,2.1,0c0.1,0,0.3,0.1,0.3,0.2
	c0,1.2,0,1.2,0,1.2c0,0.1-0.1,0.2-0.3,0.2c-12.3,0-12.3,0-12.3,0c-0.1,0-0.2-0.1-0.2-0.2c0-1.2,0-1.2,0-1.2c0-0.1,0.1-0.2,0.2-0.2
	c2.1,0,2.1,0,2.1,0c2,0,3-2.1,3.2-6.2C16,13.5,16.4,6.9,16.5,5c0.2,0,0.2,0,0.2,0c0.1,1.9,0.5,8.5,0.7,12.8
	C17.6,21.9,18.7,24,20.6,24z M10,15.8c-8.7,0-8.7,0-8.7,0c4.4-10,4.4-10,4.4-10L10,15.8z M5.6,18.3c-1.7,0-2.9-0.6-3.7-1.1
	c-0.1-0.1-0.3-0.3-0.4-0.4c8.1,0,8.1,0,8.1,0C9,17.5,7.7,18.3,5.6,18.3z M33.2,16.3C33.2,16.2,33.2,16.2,33.2,16.3
	c-0.1-0.1-0.1-0.1-0.1-0.1v-0.1c-3.3-7.5-3.3-7.5-3.3-7.5c-0.1-0.3-0.4-0.3-0.6-0.3C29,8.4,28.9,8.7,28.9,9c3,6.8,3,6.8,3,6.8
	c-8.7,0-8.7,0-8.7,0c4.4-10,4.4-10,4.4-10c0.6,1.4,0.6,1.4,0.6,1.4c0.1,0.3,0.4,0.4,0.6,0.3c0.3-0.1,0.4-0.4,0.3-0.7l0,0
	c-1.1-2.4-1.1-2.4-1.1-2.4l0,0c0-0.1,0-0.1,0-0.1C28,4.2,28,4.2,28,4.2c-0.1,0-0.1-0.1-0.1-0.1l-0.1-0.1c-0.1,0-0.1-0.1-0.1-0.1
	s0,0-0.1,0c0,0-0.1,0-0.1,0l0,0c-9,0-9,0-9,0c0.3-0.4,0.5-0.9,0.5-1.5c0-1.4-1.1-2.5-2.5-2.5c-1.4,0-2.5,1.1-2.5,2.5
	c0,0.6,0.2,1.1,0.5,1.5C5.6,4,5.6,4,5.6,4l0,0C5.6,4,5.6,4,5.5,4c0,0,0,0-0.1,0L5.4,4.1c-0.1,0-0.1,0.1-0.1,0.1v0.1
	c-0.1,0-0.1,0.1-0.1,0.1s0,0,0,0.1C0,16.1,0,16.1,0,16.1v0.1c0,0,0,0,0,0.1c0,0,0,0,0,0.1c0,0,0,0,0,0.1c0,0,0,0,0,0.1
	c0,0,0,0,0,0.1c0,0,0,0,0.1,0.1l0,0c0,0.1,1.6,2.8,5.6,2.8s5.6-2.7,5.6-2.8h0.1c0-0.1,0-0.1,0-0.1c0-0.1,0-0.1,0-0.1
	c0-0.1,0-0.1,0-0.1c0-0.1,0-0.1,0-0.1c0-0.1,0-0.1,0-0.1c0-0.1,0-0.1,0-0.1v-0.1C6.4,5,6.4,5,6.4,5c9.1,0,9.1,0,9.1,0
	c-0.1,2-0.6,8.5-0.8,12.7c-0.1,2.4-0.6,5.3-2.2,5.3c-2.1,0-2.1,0-2.1,0c-0.7,0-1.2,0.5-1.2,1.2c0,1.2,0,1.2,0,1.2
	c0,0.6,0.5,1.2,1.2,1.2c12.3,0,12.3,0,12.3,0c0.7,0,1.3-0.6,1.3-1.2c0-1.2,0-1.2,0-1.2c0-0.7-0.6-1.2-1.3-1.2c-2.1,0-2.1,0-2.1,0
	c-1.6,0-2.1-2.8-2.2-5.3C18.2,13.5,17.9,7,17.7,5c9.1,0,9.1,0,9.1,0C22,16.1,22,16.1,22,16.1s0,0.1-0.1,0.1c0,0,0,0,0,0.1
	c0,0,0,0,0,0.1c0,0,0,0,0,0.1c0,0,0,0,0,0.1c0,0,0,0,0,0.1c0,0,0.1,0,0.1,0.1l0,0c0.1,0.1,1.6,2.8,5.6,2.8c3.9,0,5.6-2.7,5.6-2.8
	l0,0c0-0.1,0-0.1,0-0.1c0-0.1,0-0.1,0-0.1C33.2,16.3,33.2,16.3,33.2,16.3C33.2,16.3,33.2,16.3,33.2,16.3z"/>
</svg>
