<?xml version="1.0" encoding="utf-8"?>
<!-- Generator: Adobe Illustrator 18.1.0, SVG Export Plug-In . SVG Version: 6.00 Build 0)  -->
<svg version="1.1" id="Layer_1" xmlns="http://www.w3.org/2000/svg" xmlns:xlink="http://www.w3.org/1999/xlink" x="0px" y="0px"
	 viewBox="0 0 39 39" enable-background="new 0 0 39 39" xml:space="preserve">
<g>
	<circle fill="#D3203E" cx="19.5" cy="19.5" r="19.5"/>
	<g>
		<path fill="#E6E6E6" d="M29.5,30.7c-0.3,0-0.6-0.1-0.8-0.3L9.3,11c-0.4-0.4-0.4-1.2,0-1.6c0.4-0.4,1.2-0.4,1.6,0l19.4,19.4
			c0.4,0.4,0.4,1.2,0,1.6C30.1,30.6,29.8,30.7,29.5,30.7z"/>
		<path fill="#E6E6E6" d="M10.1,31.2c-0.3,0-0.6-0.1-0.8-0.3c-0.4-0.4-0.4-1.2,0-1.6L28.7,9.8c0.4-0.4,1.2-0.4,1.6,0
			c0.4,0.4,0.4,1.2,0,1.6L10.9,30.8C10.7,31.1,10.4,31.2,10.1,31.2z"/>
	</g>
</g>
</svg>
