<?xml version="1.0" encoding="utf-8"?>
<!-- Generator: Adobe Illustrator 18.1.0, SVG Export Plug-In . SVG Version: 6.00 Build 0)  -->
<svg version="1.1" id="Layer_1" xmlns="http://www.w3.org/2000/svg" xmlns:xlink="http://www.w3.org/1999/xlink" x="0px" y="0px"
	 viewBox="0 0 32.6 41.2" enable-background="new 0 0 32.6 41.2" xml:space="preserve">
<g>
	<path fill="#333333" d="M14.1,26.6l-6.6-5.9c-0.5-0.4-0.6-1.2-0.1-1.7c0.4-0.5,1.2-0.6,1.7-0.1l4.8,4.2l9.4-10.7
		c0.4-0.5,1.2-0.6,1.7-0.1c0.5,0.4,0.6,1.2,0.1,1.7L14.1,26.6z"/>
	<path fill="#333333" d="M16.3,41.2c-0.1,0-0.3,0-0.4-0.1l-0.1-0.1c-2.1-1-12.8-6.5-14.5-16.2c-1.8-10.1-1.1-19.6-1.1-20
		c0-0.4,0.3-0.8,0.8-0.9L16,0c0.2,0,0.3,0,0.5,0l0.1,0l15,3.9c0.4,0.1,0.7,0.5,0.8,0.9c0,0.1,0.1,1.5,0.1,4.7c0,0.6-0.5,0.3-1,0.3
		c0,0,0,0,0,0c-0.6,0-1,0.2-1-0.3c0-2.1,0-3.3-0.1-4.2L16.3,1.9L2.1,5.6C2,8,1.8,16.2,3.2,24.5c0.6,3.7,2.9,7.1,6.5,10.3
		c2.7,2.3,5.4,3.8,6.5,4.3c1.1-0.5,3.8-2,6.5-4.3c3.7-3.2,5.9-6.6,6.5-10.3c0.5-2.9,0.9-6.1,1.1-9.4c0-0.6,0.5-1,1.1-1
		c0.6,0,1,0.5,1,1.1c-0.2,3.4-0.6,6.7-1.1,9.7C29.6,34.5,19,40.1,16.9,41.1l-0.2,0.1C16.6,41.2,16.4,41.2,16.3,41.2z"/>
</g>
</svg>
