<?xml version="1.0" encoding="utf-8"?>
<!-- Generator: Adobe Illustrator 18.1.0, SVG Export Plug-In . SVG Version: 6.00 Build 0)  -->
<svg version="1.1" id="Layer_1" xmlns="http://www.w3.org/2000/svg" xmlns:xlink="http://www.w3.org/1999/xlink" x="0px" y="0px"
	 viewBox="0 0 38.6 41.2" enable-background="new 0 0 38.6 41.2" xml:space="preserve">
<path fill-rule="evenodd" clip-rule="evenodd" fill="#333333" d="M36.7,9.1c-34.8,0-34.8,0-34.8,0c0-1.3,0-1.3,0-1.3
	c0.4-0.1,5.6-1.6,17.4-1.6c11.6,0,17,1.4,17.4,1.6V9.1z M19.5,1.9c1.4,0,2.6,1.1,3,2.4c-1,0-2,0-3.2,0c-1,0-1.9,0-2.8,0
	C16.9,3,18.1,1.9,19.5,1.9z M37.2,5.9c-0.7-0.1-4.7-1.1-12.6-1.4c-0.5-2.5-2.5-4.4-5-4.4s-4.6,1.9-5,4.4C6.2,4.7,2.2,5.8,1.4,5.9
	C0.7,6,0,6.7,0,7.6c0,1.8,0,1.8,0,1.8c0,1,0.7,1.7,1.7,1.7c0.8,0,0.8,0,0.8,0c4.2,27.2,4.2,27.2,4.2,27.2c0.1,1,1,3,3.4,3
	c18.5,0,18.5,0,18.5,0c2.4,0,3.2-1.9,3.4-3c0.1-0.6,2.3-12,3.4-20.4c0-0.6-0.4-1.1-0.8-1.1c-0.5-0.1-1,0.2-1.1,0.8
	c-1.1,8.5-3.2,20.3-3.2,20.3c0,0.1,0,0.1,0,0.1c-0.1,0.2-0.4,1.3-1.6,1.3c-18.5,0-18.5,0-18.5,0c-1.2,0-1.4-1.1-1.6-1.3
	C4.4,11,4.4,11,4.4,11c29.7,0,29.7,0,29.7,0c-0.4,2.8-0.4,2.8-0.4,2.8c-0.1,0.5,0.4,1,0.8,1.1h0.1c0.5,0,0.8-0.4,1-0.8
	c0.4-3,0.4-3,0.4-3c0.8,0,0.8,0,0.8,0c1,0,1.7-0.7,1.7-1.7c0-1.8,0-1.8,0-1.8C38.6,6.7,37.9,6,37.2,5.9z M25.8,15.7
	c-1.7,18.6-1.7,18.6-1.7,18.6c0,0.5,0.4,1,0.8,1.1c0.1,0,0.1,0,0.1,0c0.5,0,1-0.5,1-1c1.7-18.5,1.7-18.5,1.7-18.5
	c0-0.6-0.4-1-0.8-1.1C26.3,14.9,25.8,15.2,25.8,15.7z M18.3,15.8c0,18.6,0,18.6,0,18.6c0,0.5,0.5,1,1,1c0.5,0,1-0.5,1-1
	c0-18.6,0-18.6,0-18.6c0-0.5-0.5-1-1-1C18.8,14.9,18.3,15.3,18.3,15.8z M11.7,14.9c-0.5,0.1-0.8,0.5-0.8,1.1
	c1.7,18.5,1.7,18.5,1.7,18.5c0,0.5,0.5,1,1,1c0,0,0,0,0.1,0c0.5-0.1,0.8-0.6,0.8-1.1c-1.7-18.6-1.7-18.6-1.7-18.6
	C12.8,15.2,12.3,14.9,11.7,14.9z"/>
</svg>
