<?xml version="1.0" encoding="utf-8"?>
<!-- Generator: Adobe Illustrator 18.1.0, SVG Export Plug-In . SVG Version: 6.00 Build 0)  -->
<svg version="1.1" id="Layer_1" xmlns="http://www.w3.org/2000/svg" xmlns:xlink="http://www.w3.org/1999/xlink" x="0px" y="0px"
	 viewBox="0 0 62.5 54.6" enable-background="new 0 0 62.5 54.6" xml:space="preserve">
<path fill-rule="evenodd" clip-rule="evenodd" fill="#AF1521" d="M31.2,41.7c-0.3,0-0.8,0.2-1.2,0.5s-0.5,0.7-0.5,1.2
	c0,2.2,0,2.2,0,2.2c0,0.3,0.2,0.8,0.5,1.2c0.3,0.3,0.8,0.5,1.2,0.5c0.5,0,0.8-0.2,1.2-0.5c0.3-0.3,0.5-0.7,0.5-1.2
	c0-2.2,0-2.2,0-2.2c0-0.5-0.2-0.8-0.5-1.2C32.1,41.9,31.7,41.7,31.2,41.7z M32.4,15.4c-0.3-0.3-0.7-0.5-1.2-0.5
	c-0.3,0-0.8,0.2-1.2,0.5c-0.3,0.3-0.5,0.8-0.5,1.2c0.2,21,0.2,21,0.2,21c0,0.3,0.2,0.7,0.5,1c0.3,0.3,0.7,0.5,1,0.5
	c0.5,0,0.8-0.2,1-0.5c0.3-0.2,0.5-0.7,0.5-1c0.2-21,0.2-21,0.2-21C32.9,16.2,32.7,15.7,32.4,15.4z M61.9,50.5
	c-0.7-1.3-8.5-14.9-23.2-40.4c-0.5-0.7-1.3-0.8-1.8-0.5c-0.7,0.3-1,1.2-0.5,1.8c14.8,25.5,22.5,39.1,23.2,40.4
	c0.2,0,0.2,0.2,0.2,0.2c-57,0-57,0-57,0l0.2-0.2C31.1,3,31.1,3,31.1,3c0-0.2,0.2-0.2,0.2-0.3c0.2,0.2,0.2,0.2,0.2,0.3
	c0.7,1,2.5,4,2.5,4l0,0c0.2,0.3,0.7,0.7,1.2,0.7c0.7,0,1.3-0.7,1.3-1.3c0-0.2-0.2-0.5-0.3-0.7l0,0c0,0-1.7-3-2.3-4
	C32.9,0.2,32.1,0,31.4,0c-1.5-0.2-2.5,1.3-2.7,1.7C0.6,50.3,0.6,50.3,0.6,50.3c-0.2,0.3-1,1.8-0.3,3.1c0.3,0.5,1,1.2,2.5,1.2
	c57,0,57,0,57,0l0,0c0.5,0,1.8-0.2,2.5-1.2C62.7,52.7,62.6,51.7,61.9,50.5z"/>
</svg>
