<?xml version="1.0" encoding="utf-8"?>
<!-- Generator: Adobe Illustrator 18.1.0, SVG Export Plug-In . SVG Version: 6.00 Build 0)  -->
<svg version="1.1" id="Layer_1" xmlns="http://www.w3.org/2000/svg" xmlns:xlink="http://www.w3.org/1999/xlink" x="0px" y="0px"
	 viewBox="0 0 103.5 68.2" enable-background="new 0 0 103.5 68.2" xml:space="preserve">
<path fill-rule="evenodd" clip-rule="evenodd" fill="#4D4D4D" d="M98.1,25.3c-0.7-0.5-1.8-0.2-2.3,0.5C95.6,26,82.1,46.1,62.5,56
	c-5.2,2.7-11.5,4.5-18,5.6c6.1-2,12-4.7,16.9-8.4c20.1-14,27.7-30.7,28-31.4c0.5-0.9,0.2-1.8-0.7-2.3c-1.4-0.9-1.4-0.9-1.4-0.9
	c10.8-4.3,10.8-4.3,10.8-4.3C99.5,26,99.5,26,99.5,26L98.1,25.3z M74.2,63.9c0,0.2-0.5,0.7-0.7,0.7c-8.8,0-8.8,0-8.8,0
	c-0.5,0-0.7-0.5-0.7-0.7c0-4.5,0-4.5,0-4.5v-0.2c3.6-1.8,7-3.8,10.2-6.1V63.9z M54.1,63.9c0,0.2-0.5,0.7-0.9,0.7c-5,0-5,0-5,0
	c1.8-0.5,3.8-0.9,5.9-1.6V63.9z M43.8,12.9c0-0.5,0.5-0.7,0.9-0.7c8.6,0,8.6,0,8.6,0c0.5,0,0.9,0.2,0.9,0.7c0,40.9,0,40.9,0,40.9
	c-3.4,1.6-6.8,3.2-10.4,4.3V12.9z M33.8,60.7c-3.4,0.9-7,1.6-10.2,2c0-41.3,0-41.3,0-41.3c0-0.5,0.2-0.7,0.7-0.7c8.8,0,8.8,0,8.8,0
	c0.5,0,0.7,0.2,0.7,0.7V60.7z M13.8,63.9c0,0,0,0,0,0.2c-5,0.2-7.9,0.5-8.1,0.5s-0.2,0-0.5,0c-0.9,0-0.9,0-0.9,0
	c-0.5,0-0.7-0.5-0.7-0.7c0-33.6,0-33.6,0-33.6c0-0.5,0.2-0.9,0.7-0.9c8.8,0,8.8,0,8.8,0c0.2,0,0.7,0.5,0.7,0.9V63.9z M103.3,28.9
	c-1.8-17.2-1.8-17.2-1.8-17.2c-0.2-0.5-0.5-1.1-0.9-1.4c-0.5-0.2-1.1-0.2-1.6,0c-16.5,6.5-16.5,6.5-16.5,6.5
	c-0.7,0.2-0.9,0.7-1.1,1.4c0,0.7,0.5,1.4,0.9,1.8c3.2,1.8,3.2,1.8,3.2,1.8c-1.1,2-3.6,6.3-7.7,11.3c0-17.6,0-17.6,0-17.6
	c0-0.9-0.9-1.8-1.8-1.8c-0.9,0-1.8,0.9-1.8,1.8c0,21.7,0,21.7,0,21.7c-2.9,3.2-6.3,6.5-10.2,9.7c0-42.7,0-42.7,0-42.7
	c0-0.5,0.2-0.7,0.7-0.7c8.8,0,8.8,0,8.8,0c0.2,0,0.7,0.2,0.7,0.7c0,4.3,0,4.3,0,4.3c0,0.9,0.9,1.8,1.8,1.8c0.9,0,1.8-0.9,1.8-1.8
	c0-4.3,0-4.3,0-4.3c0-2.5-2-4.3-4.3-4.3c-8.8,0-8.8,0-8.8,0c-2.5,0-4.3,1.8-4.3,4.3c0,45.4,0,45.4,0,45.4c-0.5,0.2-0.7,0.5-1.1,0.7
	c-0.5,0.5-1.1,0.9-1.6,1.1c0-38.6,0-38.6,0-38.6c0-2.5-2-4.3-4.5-4.3c-8.6,0-8.6,0-8.6,0c-2.5,0-4.5,1.8-4.5,4.3
	c0,46.3,0,46.3,0,46.3c-0.9,0.2-1.8,0.5-2.7,0.7c0-38.4,0-38.4,0-38.4c0-2.3-1.8-4.3-4.3-4.3c-8.8,0-8.8,0-8.8,0
	c-2.3,0-4.3,2-4.3,4.3c0,41.8,0,41.8,0,41.8c-0.9,0.2-1.8,0.2-2.7,0.5c0-33.4,0-33.4,0-33.4c0-2.5-2-4.5-4.3-4.5c-8.8,0-8.8,0-8.8,0
	c-2.5,0-4.3,2-4.3,4.5c0,33.6,0,33.6,0,33.6c0,2.3,1.8,4.3,4.3,4.3c28.9,0,28.9,0,28.9,0c1.4,0,2.5-0.7,3.4-1.6
	c1.4-0.2,2.9-0.5,4.3-0.7c0.7,1.4,2,2.3,3.8,2.3c8.6,0,8.6,0,8.6,0c2.5,0,4.5-2,4.5-4.3c0-2,0-2,0-2c0.9-0.2,1.8-0.7,2.7-0.9
	c0,2.9,0,2.9,0,2.9c0,2.3,1.8,4.3,4.3,4.3c8.8,0,8.8,0,8.8,0c2.3,0,4.3-2,4.3-4.3c0-13.5,0-13.5,0-13.5C88.2,42,95.2,32.7,97.9,29.1
	c2.9,1.8,2.9,1.8,2.9,1.8c0.2,0.2,0.5,0.2,0.9,0.2l0,0c0.9,0,1.8-0.7,1.8-1.8C103.5,29.4,103.5,29.1,103.3,28.9z"/>
</svg>
