<?xml version="1.0" encoding="utf-8"?>
<!-- Generator: Adobe Illustrator 18.1.0, SVG Export Plug-In . SVG Version: 6.00 Build 0)  -->
<svg version="1.1" id="Layer_1" xmlns="http://www.w3.org/2000/svg" xmlns:xlink="http://www.w3.org/1999/xlink" x="0px" y="0px"
	 viewBox="0 0 67.8 92" enable-background="new 0 0 67.8 92" xml:space="preserve">
<path fill-rule="evenodd" clip-rule="evenodd" fill="#4D4D4D" d="M52.4,58.5c-37.1,0-37.1,0-37.1,0c-0.9,0-1.8,0.9-1.8,1.8
	c0,1.1,0.9,1.8,1.8,1.8c37.1,0,37.1,0,37.1,0c0.9,0,1.8-0.7,1.8-1.8C54.2,59.4,53.3,58.5,52.4,58.5z M52.4,78.4
	c-37.1,0-37.1,0-37.1,0c-0.9,0-1.8,0.9-1.8,1.8c0,1.1,0.9,1.8,1.8,1.8c37.1,0,37.1,0,37.1,0c0.9,0,1.8-0.7,1.8-1.8
	C54.2,79.3,53.3,78.4,52.4,78.4z M32.3,14.2c0,16.5,0,16.5,0,16.5V31v0.2c0.2,0,0.2,0.2,0.2,0.2v0.2l0.2,0.2c0,0,0,0,0,0.2
	c0.2,0,0.2,0,0.2,0l0.2,0.2c13.6,9,13.6,9,13.6,9c-3.2,3.6-7.7,6.1-12.9,6.1c-9,0-16.5-7.5-16.5-16.7C17.4,22.2,24,15.1,32.3,14.2z
	 M49.3,24.6c0.9,2,1.4,4.1,1.4,6.1c0,2.7-0.7,5.2-1.8,7.5C37.7,31,37.7,31,37.7,31L49.3,24.6z M33.9,51.1c11.1,0,20.3-9.3,20.3-20.3
	c0-3.4-0.9-6.6-2.5-9.3c0,0,0,0,0-0.2l0,0c-3.4-6.3-10.2-10.6-17.9-10.6c-11.1,0-20.1,9-20.1,20.1C13.8,41.8,22.8,51.1,33.9,51.1z
	 M52.4,68.5c-37.1,0-37.1,0-37.1,0c-0.9,0-1.8,0.9-1.8,1.8c0,0.9,0.9,1.8,1.8,1.8c37.1,0,37.1,0,37.1,0c0.9,0,1.8-0.9,1.8-1.8
	C54.2,69.4,53.3,68.5,52.4,68.5z M66,12.9c1.1,0,1.8-0.7,1.8-1.8c0-4.1,0-4.1,0-4.1c0-2.7-1.8-7-7-7C7,0,7,0,7,0C4.3,0,0,1.8,0,7
	c0,78.2,0,78.2,0,78.2C0,87.9,1.8,92,7,92c53.8,0,53.8,0,53.8,0c2.9,0,7-1.8,7-6.8c0-66.9,0-66.9,0-66.9c0-1.1-0.7-1.8-1.8-1.8
	c-0.9,0-1.8,0.7-1.8,1.8c0,66.9,0,66.9,0,66.9c0,2.9-2.5,3.2-3.4,3.2C7,88.4,7,88.4,7,88.4c-3.2,0-3.4-2.5-3.4-3.2
	C3.6,7,3.6,7,3.6,7c0-3.2,2.7-3.4,3.4-3.4c53.8,0,53.8,0,53.8,0c3.2,0,3.4,2.7,3.4,3.4c0,4.1,0,4.1,0,4.1
	C64.2,12.2,65.1,12.9,66,12.9z"/>
</svg>
