<?xml version="1.0" encoding="utf-8"?>
<!-- Generator: Adobe Illustrator 18.1.0, SVG Export Plug-In . SVG Version: 6.00 Build 0)  -->
<svg version="1.1" id="Layer_1" xmlns="http://www.w3.org/2000/svg" xmlns:xlink="http://www.w3.org/1999/xlink" x="0px" y="0px"
	 viewBox="0 0 22.7 35.1" enable-background="new 0 0 22.7 35.1" xml:space="preserve">
<path fill-rule="evenodd" clip-rule="evenodd" fill="#4D4D4D" d="M14.5,30.1c0,0.2-0.2,0.3-0.3,0.3c-9.5,0-9.5,0-9.5,0
	c-0.2,0-0.3-0.1-0.3-0.3c0-0.8,0-0.8,0-0.8c0-0.2,0.1-0.3,0.3-0.3c9.5,0,9.5,0,9.5,0c0.1,0,0.3,0.1,0.3,0.3V30.1z M14.2,27.6
	c-9.5,0-9.5,0-9.5,0c-0.9,0-1.7,0.7-1.7,1.7c0,0.8,0,0.8,0,0.8c0,1,0.8,1.7,1.7,1.7c9.5,0,9.5,0,9.5,0c0.9,0,1.7-0.7,1.7-1.7
	c0-0.8,0-0.8,0-0.8C15.9,28.3,15.1,27.6,14.2,27.6z M14.5,17.9c0,0.2-0.2,0.4-0.3,0.4c-9.5,0-9.5,0-9.5,0c-0.2,0-0.3-0.2-0.3-0.4
	c0-0.8,0-0.8,0-0.8c0-0.2,0.1-0.3,0.3-0.3c9.5,0,9.5,0,9.5,0c0.1,0,0.3,0.1,0.3,0.3V17.9z M15.9,17.1c0-0.9-0.8-1.7-1.7-1.7
	c-9.5,0-9.5,0-9.5,0c-0.9,0-1.7,0.8-1.7,1.7c0,0.8,0,0.8,0,0.8c0,1,0.8,1.8,1.7,1.8c9.5,0,9.5,0,9.5,0c0.9,0,1.7-0.8,1.7-1.8V17.1z
	 M14.5,24c0,0.2-0.2,0.3-0.3,0.3c-9.5,0-9.5,0-9.5,0c-0.2,0-0.3-0.1-0.3-0.3c0-0.8,0-0.8,0-0.8c0-0.2,0.1-0.3,0.3-0.3
	c9.5,0,9.5,0,9.5,0c0.1,0,0.3,0.1,0.3,0.3V24z M15.9,23.2c0-1-0.8-1.7-1.7-1.7c-9.5,0-9.5,0-9.5,0c-0.9,0-1.7,0.7-1.7,1.7
	C3,24,3,24,3,24c0,1,0.8,1.7,1.7,1.7c9.5,0,9.5,0,9.5,0c0.9,0,1.7-0.7,1.7-1.7V23.2z M14.5,11.9c0,0.2-0.2,0.4-0.3,0.4
	c-9.5,0-9.5,0-9.5,0c-0.2,0-0.3-0.2-0.3-0.4c0-0.7,0-0.7,0-0.7c0-0.2,0.1-0.4,0.3-0.4c9.5,0,9.5,0,9.5,0c0.1,0,0.3,0.2,0.3,0.4V11.9
	z M15.9,11.1c0-1-0.8-1.8-1.7-1.8c-9.5,0-9.5,0-9.5,0C3.8,9.4,3,10.2,3,11.1c0,0.7,0,0.7,0,0.7c0,1,0.8,1.8,1.7,1.8
	c9.5,0,9.5,0,9.5,0c0.9,0,1.7-0.8,1.7-1.8V11.1z M14.5,5.9c0,0.2-0.2,0.3-0.3,0.3c-9.5,0-9.5,0-9.5,0c-0.2,0-0.3-0.1-0.3-0.3
	c0-0.8,0-0.8,0-0.8c0-0.2,0.1-0.4,0.3-0.4c9.5,0,9.5,0,9.5,0c0.1,0,0.3,0.2,0.3,0.4V5.9z M15.9,5.1c0-1-0.8-1.8-1.7-1.8
	c-9.5,0-9.5,0-9.5,0C3.8,3.3,3,4.1,3,5.1c0,0.8,0,0.8,0,0.8c0,0.9,0.8,1.7,1.7,1.7c9.5,0,9.5,0,9.5,0c0.9,0,1.7-0.8,1.7-1.7V5.1z
	 M18.5,22.4c-0.7,0-1.2,0.5-1.2,1.2c0,0.6,0.5,1.2,1.2,1.2c0.7,0,1.2-0.6,1.2-1.2C19.7,22.9,19.2,22.4,18.5,22.4z M18.5,16.3
	c-0.7,0-1.2,0.5-1.2,1.2c0,0.7,0.5,1.2,1.2,1.2c0.7,0,1.2-0.5,1.2-1.2C19.7,16.9,19.2,16.3,18.5,16.3z M18.5,28.4
	c-0.7,0-1.2,0.6-1.2,1.2c0,0.7,0.5,1.2,1.2,1.2c0.7,0,1.2-0.5,1.2-1.2C19.7,29,19.2,28.4,18.5,28.4z M18.5,4.2
	c-0.7,0-1.2,0.5-1.2,1.2c0,0.7,0.5,1.2,1.2,1.2c0.7,0,1.2-0.5,1.2-1.2C19.7,4.7,19.2,4.2,18.5,4.2z M18.5,10.3
	c-0.7,0-1.2,0.5-1.2,1.2c0,0.7,0.5,1.2,1.2,1.2c0.7,0,1.2-0.5,1.2-1.2C19.7,10.8,19.2,10.3,18.5,10.3z M22,4.7
	c0.4,0,0.7-0.3,0.7-0.7c0-2.3,0-2.3,0-2.3c0-1-0.8-1.7-1.8-1.7C1.7,0,1.7,0,1.7,0C0.8,0,0,0.7,0,1.7c0,31.7,0,31.7,0,31.7
	c0,1,0.8,1.8,1.7,1.8c19.3,0,19.3,0,19.3,0c1,0,1.8-0.8,1.8-1.8c0-26.5,0-26.5,0-26.5c0-0.4-0.4-0.7-0.7-0.7c-0.4,0-0.7,0.4-0.7,0.7
	c0,26.5,0,26.5,0,26.5c0,0.2-0.2,0.4-0.4,0.4c-19.3,0-19.3,0-19.3,0c-0.2,0-0.3-0.2-0.3-0.4c0-31.7,0-31.7,0-31.7
	c0-0.2,0.1-0.3,0.3-0.3c19.3,0,19.3,0,19.3,0c0.2,0,0.4,0.1,0.4,0.3c0,2.3,0,2.3,0,2.3C21.3,4.5,21.6,4.7,22,4.7z"/>
</svg>
